<svg width="72" height="19" viewBox="0 0 72 19" fill="none" xmlns="http://www.w3.org/2000/svg">
<g clip-path="url(#clip0_1_2)">
<g clip-path="url(#clip1_1_2)">
<path d="M10.592 4.36799V1.19999H0.559998V18H3.872V11.52H10.4V8.35199H3.872V4.36799H10.592ZM20.7813 5.99999V12.48C20.7813 14.568 19.6533 15.456 18.1413 15.456C16.7493 15.456 15.7653 14.616 15.7653 12.984V5.99999H12.6693V13.368C12.6693 16.56 14.6613 18.336 17.2053 18.336C18.8133 18.336 20.0613 17.736 20.7813 16.656V18H23.8773V5.99999H20.7813ZM33.3849 5.66399C31.7769 5.66399 30.5289 6.26399 29.8089 7.34399V5.99999H26.7129V18H29.8089V11.52C29.8089 9.43199 30.9369 8.54399 32.4489 8.54399C33.8409 8.54399 34.8249 9.38399 34.8249 11.016V18H37.9209V10.632C37.9209 7.43999 35.9289 5.66399 33.3849 5.66399ZM42.1004 4.55999C43.1564 4.55999 44.0204 3.69599 44.0204 2.66399C44.0204 1.63199 43.1564 0.743988 42.1004 0.743988C41.0684 0.743988 40.2044 1.63199 40.2044 2.66399C40.2044 3.69599 41.0684 4.55999 42.1004 4.55999ZM40.5644 18H43.6604V5.99999H40.5644V18ZM49.5901 8.06399V5.99999H46.4941V18H49.5901V12.264C49.5901 9.74399 51.6301 9.02399 53.2381 9.21599V5.75999C51.7261 5.75999 50.2141 6.43199 49.5901 8.06399ZM60.3155 18.336C63.8435 18.336 66.6755 15.576 66.6755 12C66.6755 8.42399 63.8435 5.66399 60.3155 5.66399C56.7875 5.66399 53.9795 8.42399 53.9795 12C53.9795 15.576 56.7875 18.336 60.3155 18.336ZM60.3155 15.312C58.4915 15.312 57.0755 13.944 57.0755 12C57.0755 10.056 58.4915 8.68799 60.3155 8.68799C62.1635 8.68799 63.5795 10.056 63.5795 12C63.5795 13.944 62.1635 15.312 60.3155 15.312ZM69.6926 18.312C70.8206 18.312 71.7326 17.4 71.7326 16.272C71.7326 15.144 70.8206 14.232 69.6926 14.232C68.5646 14.232 67.6526 15.144 67.6526 16.272C67.6526 17.4 68.5646 18.312 69.6926 18.312Z" fill="#E89F71"/>
</g>
</g>
<defs>
<clipPath id="clip0_1_2">
<rect width="72" height="19" fill="white"/>
</clipPath>
<clipPath id="clip1_1_2">
<rect width="72" height="19" fill="white"/>
</clipPath>
</defs>
</svg>
